<svg viewBox="0 0 1000 1000" xmlns="http://www.w3.org/2000/svg"><circle cx="462.27" cy="464.88" fill="#eab642" r="437.27"/><circle cx="501.31" cy="503.92" fill="#fff" r="437.27"/><circle cx="537.73" cy="535.12" fill="#ddede8" r="437.27"/><path d="m162.37 780.2c80.19 98.25 202.23 161 338.94 161 136.93 0 259.16-63 339.34-161.49-1.54-25.25-5.4-50.49-10.18-75.05-20.31-104.51-114.33-106-189.11-101.82q-141.75 7.89-283.58 6.77c-60.72-.48-148.33-.54-177.18 78.36-10.51 28.71-16.05 60.52-18.23 92.23z" fill="#fff"/><path d="m187 797.19c80.19 98.25 202.23 161 338.94 161 136.93 0 259.16-62.95 339.34-161.48-1.53-25.26-5.4-50.5-10.18-75.06-20.3-104.51-114.33-106-189.11-101.81q-141.75 7.88-283.58 6.76c-60.73-.5-148.34-.6-177.19 78.4-10.51 28.67-16.05 60.47-18.22 92.19z" fill="#eab642"/><path d="m324.39 880.47c-4.71-44.27 21-88 57.21-113.85s81.47-36.18 125.88-39.35c18.16-1.3 36.52-1.49 54.46 1.62 70.57 12.24 125 76.9 138 147.34 1.29 6.94 2 14.8-2.29 20.39-3.23 4.19-8.56 6.07-13.59 7.7-53.2 17.34-107.8 31.43-163.57 35.94s-113-.83-165.05-21.29c-9.27-3.64-19.09-8.42-23.4-17.41" fill="#ef6348"/><path d="m328 880.47c-5.47-59.46 40.44-108.53 92.63-129.1 28.28-11.14 58.57-16.51 88.8-18.49 29.92-2 59.8.07 87.22 13.11 46 21.87 79.54 65.89 93.3 114.39a162.24 162.24 0 0 1 4.34 19c1.06 6.82.89 13.35-5.9 16.76-6.63 3.33-14.39 5-21.46 7.18q-12.31 3.83-24.71 7.34c-32.46 9.18-65.52 16.72-99 20.92-32.64 4.08-65.73 5.14-98.49 2a340.94 340.94 0 0 1 -47.71-8c-15.06-3.67-30.61-8-44.68-14.6-6.1-2.86-11.67-6.35-14.87-12.47-3.76-7.21-14.64-.84-10.89 6.36 7.23 13.81 23.52 19.13 37.42 24.02a325 325 0 0 0 50.12 13.11 410.24 410.24 0 0 0 104.51 4.78c36.66-2.88 72.92-9.81 108.47-19.13 17.54-4.6 34.94-9.78 52.2-15.34 7.05-2.26 15.08-4.15 20.69-9.29s7.4-12.61 6.94-19.93c-.86-13.63-5.25-27.59-10-40.31a205.64 205.64 0 0 0 -18.47-37.61c-14.59-23.23-33.85-43.61-56.85-58.65-24.89-16.26-53.29-24.7-82.93-25.78a313.53 313.53 0 0 0 -100.34 12.71c-57.53 17.4-110.83 61.82-117.58 124.75a104.83 104.83 0 0 0 0 22.26c.48 4.54 7.61 4.63 7.19 0z" fill="#ef6348"/><g fill="#4747e2"><path d="m462.28 799.65c-11.66 9.93-22.86 20.33-34.36 30.43-5.64 5-11 10-16.31 15.39s-13.25 11.09-15.61 18.28c-2.8 8.36 2.48 14.46 7.3 20.6q6.64 8.46 13.5 16.74c4.78 5.76 9.62 11.45 14.7 16.94 4.79 5.19 10.05 12.65 16.66 15.51 6.31 2.72 15.18-1.84 12.65-9.73-2.1-6.56-7.4-11.56-11.69-16.79-4.17-5.07-8.29-10.18-12.46-15.25q-5.94-7.23-11.72-14.61c-1.74-2.22-3.47-4.45-5.17-6.7-.14-.17-2.81-4.12-3.07-4.1 1.29-.1-3.73 8.92 1.26 3.33 18-20.2 35.2-41.14 52.13-62.28 4.39-5.47-2.3-12.4-7.76-7.76z"/><path d="m546.4 766.6c-24.78 59.52-49.36 119.07-73.21 179l14 3.87a39.52 39.52 0 0 0 1.22-7.73c.63-6.48-9.37-8.92-12.22-3.31a40 40 0 0 0 -3 7.17c-2.58 9.17 10.79 12.48 14 3.87 22.65-60.1 44.55-120.44 66.26-180.88 1.63-4.54-5.32-6.21-7.09-2z"/><path d="m570.09 808.1c3.47 4.51 9.15 7.22 13.63 10.72a175.7 175.7 0 0 1 13.86 11.85c4.39 4.25 8.63 8.75 12.61 13.39 1.08 1.27 2.22 2.53 3.21 3.88a10.79 10.79 0 0 1 1 1.43c.72 1.4.84.85.38-1.65-.43-.08-5.32 6.87-5.56 7.17-16.74 21.13-32.53 44.77-53.85 61.61-4.35 3.44-3.59 10.92 0 14.51 4.28 4.28 10.17 3.47 14.51 0 12-9.59 21.75-21.41 31.2-33.43q7.81-10 15.61-19.93c4.86-6.21 10.88-12.39 14.61-19.36 8.37-15.62-8.81-28.84-19.93-37.37a135.45 135.45 0 0 0 -18-11.91c-5.47-3-13.16-7.56-19.47-7.55-3 0-5.94 3.88-3.81 6.64z"/></g><path d="m155.75 786.82a446.06 446.06 0 0 0 622.75 67.24 440.68 440.68 0 0 0 61.07-58.53q3.18-3.71 6.27-7.46c1.49-1.81 3.2-3.56 3.84-5.88.71-2.61.13-5.67-.06-8.32-.68-9.07-1.65-18.11-2.83-27.13-2.26-17.32-4.8-34.83-8.85-51.84-5.53-23.2-16.19-45.48-33.14-62.5-14.8-14.87-33.66-24.92-53.62-31-43.8-13.32-90.62-8.82-135.59-6.58q-111 5.52-222.12 5.54c-47.69 0-98.3-4.07-144.29 11.37-21.42 7.19-41.6 18.92-56.28 36.37-19.07 22.68-27.57 51.94-33.21 80.54a418 418 0 0 0 -6.69 51.56c-.36 5 4.56 9.37 9.36 9.37 5.37 0 9-4.3 9.37-9.37a370 370 0 0 1 7.72-54.73c3.49-15.59 7.68-31.7 15-46 10.73-21.08 28-36.37 49.52-45.8 20.32-8.92 43.42-12.38 65.47-13.82 26.64-1.74 53.42-.77 80.1-.75q117.54.09 235-6c24.36-1.26 48.73-2.88 73.13-1.56 20.79 1.13 42.25 4.35 61.55 12.56 19 8.07 35.33 21.33 46.21 39.28a124.08 124.08 0 0 1 14 34.39c4.35 17.26 7 35.19 9.2 52.84q1.8 14.5 2.72 29.09l2.75-6.62c-62.65 76.63-150.1 130.33-247.1 150.19-99 20.25-204.09 4.28-292.44-44.64a435 435 0 0 1 -125.56-105.05c-3.2-3.91-9.91-3.33-13.24 0-3.88 3.87-3.22 9.32-.01 13.24z" fill="#1a1c3f"/><path d="m385.58 624.77c-6.82-90.79-8.92-235.54-6.26-326.55.26-9 .72-18.56 5.59-26.16 3.62-5.65 9.29-9.61 15-13.13 34.67-21.4 75.25-31.55 115.76-35.87 25.57-2.72 52.72-2.94 75.43 9.13 8.1 4.31 15.64 10.38 19.59 18.67 3 6.22 3.7 13.24 4.36 20.1 9 93.19 11.49 240.61 7.46 334.14-.32 7.49-.78 15.31-4.54 21.8-5.8 10-17.86 14.36-29.07 17.31a328.43 328.43 0 0 1 -204.7-12.89" fill="#fff"/><path d="m409.59 631.09c-6.83-90.79-8.92-235.55-6.26-326.56.26-9 .72-18.55 5.59-26.16 3.61-5.64 9.29-9.61 15-13.12 34.66-21.4 75.25-31.55 115.75-35.87 25.58-2.72 52.73-2.95 75.44 9.13 8.1 4.3 15.64 10.38 19.58 18.66 3 6.23 3.71 13.25 4.37 20.11 9 93.19 11.49 240.61 7.46 334.14-.32 7.49-.78 15.31-4.54 21.8-5.8 10-17.86 14.35-29.07 17.3a328.36 328.36 0 0 1 -204.69-12.89" fill="#f7cebf"/><g fill="#1a1c3f"><path d="m413.15 295.31c2.13 13.79-3 27.57-8 40.59-5.6 14.52-11.37 29.34-21.46 41.17-2.44-3.38-2.75-7.81-2.95-12q-1.17-25-1.06-50a12.19 12.19 0 0 1 .74-5c2-4.44 8.36-5.08 11.2-9"/><path d="m578 281.63a64.28 64.28 0 0 0 2.48 41c4.57 11.18 12.2 20.81 19.73 30.26l14.79 18.58c2-2.27 2.09-5.59 2.07-8.62q-.26-39-.5-78"/><path d="m389.91 624.77c0-35.35-1.86-70.73-2.13-106.1-.29-39.12-1-78.23-.83-117.36.15-35.41-.25-70.9 1.26-106.3.38-9.12 1.74-17.43 9-23.61s17-10.85 25.68-15.06c19.5-9.42 40.51-15.61 61.71-19.81 20.58-4.08 41.94-6.91 63-6.11 17.71.68 40.71 4.78 52.41 19.65 5.86 7.45 6 17.61 6.85 26.63q1.14 12.42 2 24.85 2 26.57 3.21 53.17c3.71 76.18 4.25 152.44 2.54 228.67-.19 8.31-.33 16.63-.75 24.93-.44 8.7-2.24 16.52-10.06 21.39-8 5-17.57 6.93-26.62 9a303.14 303.14 0 0 1 -32.07 5.68 324.15 324.15 0 0 1 -128.45-10.39c-10.28-3-20.39-6.5-30.32-10.46-4-1.61-8.83 1.76-9.89 5.61-1.26 4.58 1.57 8.27 5.61 9.89a336.16 336.16 0 0 0 203.8 14.28c19.53-4.78 39.7-12.59 43.75-34.74 1.71-9.32 1.67-19 2.06-28.47q.57-13.53.84-27.08.6-28.77.57-57.54 0-62.07-2.35-124.12c-1.44-37.41-3.31-74.9-7.11-112.15-1.19-11.7-3.54-22.38-11.3-31.57-6.93-8.22-16.76-13.61-26.63-17.52-20.46-8.1-43.28-8.33-64.9-6.37-44.48 4-91.77 14.57-129.24 40.08-9 6.11-15.95 13.82-18.8 24.52-2.53 9.49-2.23 19.66-2.47 29.41q-.66 27.09-.79 54.2c-.47 79.83 2.22 159.69 9 239.24.71 8.29 1.7 16.46 2.93 24.69.73 4.91 8.52 3.61 8.51-1.16z"/><path d="m455 381.11c-2.68-.21-5.32-.65-7.42 1.5-1.7 1.74-2.24 5.12-2.2 7.45a8.47 8.47 0 0 0 3.9 7.25 7.45 7.45 0 0 0 7.81.09c2.26-1.47 3.41-4.64 1.85-7.06-1.46-2.26-4.64-3.42-7.06-1.85a3.66 3.66 0 0 1 2.36-.18c.66.35.75.38.25.1a1.49 1.49 0 0 1 .78.8c-.24-.43-.24-.43 0 0 0 .54 0 .51 0-.1 0-.33 0-.65 0-1s.05-.65.09-1a2.88 2.88 0 0 1 -.19.87l-1.67 1.68.38-.18-2.35.64c1.15-.13 2.31-.15 3.46-.21a4.42 4.42 0 1 0 0-8.84z"/><path d="m552.2 381.11c-2.68-.21-5.32-.65-7.42 1.5-1.7 1.74-2.24 5.12-2.2 7.45a8.47 8.47 0 0 0 3.9 7.25 7.45 7.45 0 0 0 7.81.09c2.26-1.47 3.41-4.64 1.85-7.06-1.46-2.26-4.64-3.42-7.06-1.85a3.66 3.66 0 0 1 2.36-.18c.66.35.75.38.25.1a1.49 1.49 0 0 1 .78.8c-.24-.43-.24-.43 0 0 0 .54 0 .51 0-.1 0-.33 0-.65 0-1s0-.65.09-1a2.88 2.88 0 0 1 -.19.87l-1.67 1.68.38-.18-2.35.64c1.15-.13 2.31-.15 3.46-.21a4.42 4.42 0 0 0 0-8.84z"/></g><path d="m376.46 381.57a12.23 12.23 0 0 0 -7.44-4.13 11.61 11.61 0 0 0 -9.21 3.63 21.58 21.58 0 0 0 -4.94 8.85 39.37 39.37 0 0 0 5.59 34.5 20.21 20.21 0 0 0 7.13 6.48 10.33 10.33 0 0 0 9.36.15" fill="#f7cebf"/><path d="m379.49 379.8c-4.8-8.48-14.65-10.83-22.78-5.15s-11.09 17.56-11.2 26.9a50.59 50.59 0 0 0 8.63 28.45c6.46 9.4 21 17 28.9 4.62 2.33-3.64.18-9.48-4.21-10.35-5.33-1.06-9.28-1.64-12.77-6.16a27.35 27.35 0 0 1 -5.22-14.19c-.73-7.82 2.17-25.83 13.85-19.31a3.54 3.54 0 0 0 4.8-4.8z" fill="#1a1c3f"/><path d="m624.87 381.57a12.17 12.17 0 0 1 7.44-4.13 11.57 11.57 0 0 1 9.2 3.63 21.6 21.6 0 0 1 5 8.85 39.4 39.4 0 0 1 -5.6 34.5 20.21 20.21 0 0 1 -7.13 6.48 10.33 10.33 0 0 1 -9.36.15" fill="#f7cebf"/><g fill="#1a1c3f"><path d="m626.64 384.6c11.68-6.53 14.54 11.5 13.85 19.31a27.5 27.5 0 0 1 -4.91 13.78c-3.58 4.82-7.47 5.45-13.08 6.57-4.39.87-6.54 6.71-4.22 10.35 7.66 12 21.88 5.21 28.43-4a50.46 50.46 0 0 0 9.11-29.09c-.11-9.19-3-20.41-10.51-26.36-8.07-6.36-18.52-4.14-23.48 4.61a3.54 3.54 0 0 0 4.81 4.8z"/><path d="m494 382.79c-2.67 7.08-2.42 15.4-2.93 22.86s-1.09 15-1.25 22.48c-.19 9.51 14.57 9.5 14.76 0 .15-7.49-.13-15-.33-22.48s.34-15.71-2-22.86c-1.39-4.15-6.73-3.91-8.21 0z"/><path d="m241.65 709.72c-4 23.21-7 46.44-9.2 69.88-1.1 11.49-2 23-2.58 34.5q-.45 8.88-.8 17.75c-.23 6-1.62 13.31 1.9 18.53 3.26 4.82 9.46 4.64 12.75 0 3.44-4.87 2.35-11.84 2.37-17.54s.08-11.18.17-16.77q.28-17.73.67-35.48c.52-23.27 1.47-46.56 2.59-69.81.21-4.43-7.11-5.56-7.87-1.06z"/><path d="m744.49 689.92c3.56 23.92 6.27 47.94 9.54 71.9s5 48 8.84 71.73l2.33-8.85.57-.42c-8.46 1.31-7.11 13.67 0 15.82 3.83 1.15 6.84.43 10.45-1.12 2.68-1.16 4.7-5 4.5-7.85-1.76-24.27-6.8-48.67-11.32-72.55s-10.69-47.4-17-70.83c-1.41-5.21-8.64-2.9-7.89 2.17z"/><path d="m919.85 503.92q0 17.51-1.38 35-.66 8.28-1.62 16.52c-.16 1.37-.34 2.74-.5 4.1-.57 4.74.62-4.24-.06.48-.46 3.16-.92 6.33-1.43 9.48a435 435 0 0 1 -15.55 64.38q-5.14 15.87-11.49 31.32c-.37.89-1.94 5.19-.17.43-.46 1.24-1 2.45-1.58 3.66q-1.59 3.64-3.25 7.26-3.59 7.83-7.48 15.5a437.19 437.19 0 0 1 -33.34 55.13c-3 4.28-6.17 8.49-9.34 12.67-2.74 3.62 2.55-3.2-.28.36-.82 1-1.62 2-2.44 3.08q-2.87 3.59-5.8 7.11-10.44 12.6-21.83 24.34t-23.61 22.65q-5.88 5.22-11.93 10.23-2.52 2.1-5.07 4.14c-1 .83-2.05 1.64-3.08 2.45l-2.06 1.62c2.06-1.59 2.29-1.76.68-.53a451.57 451.57 0 0 1 -55 35.87q-14.49 8-29.55 14.82c-2.41 1.1-4.84 2.17-7.27 3.23-.89.38-5 2.35-.42.19-1.2.56-2.46 1-3.69 1.52q-7.39 3-14.91 5.77a434.1 434.1 0 0 1 -64.78 18.11q-8 1.59-16.12 2.88c-2.71.43-5.42.82-8.14 1.21-4.71.68 4.27-.51-.47.06-1.82.22-3.64.45-5.47.66-11 1.26-22.14 2.1-33.24 2.52a443.88 443.88 0 0 1 -69.73-2.84c-1.35-.17-2.76-.25-4.09-.52 5.12 1 .55.08-.47-.07q-4.06-.59-8.13-1.24-8.75-1.41-17.43-3.19-15.9-3.25-31.53-7.68-16.11-4.6-31.8-10.36-7.5-2.78-14.89-5.81c-.9-.37-5.19-1.94-.43-.17-1.24-.46-2.45-1-3.66-1.57q-4.26-1.86-8.47-3.81a436.12 436.12 0 0 1 -56.45-31.36 327.19 327.19 0 0 1 -26.72-19c3.9 3.16.39.29-.35-.3-1-.81-2.05-1.62-3.08-2.45q-3.06-2.46-6.08-5-6.54-5.44-12.86-11.15a439.59 439.59 0 0 1 -44.37-46.25q-2.5-3-5-6.1c-.82-1-1.62-2.06-2.44-3.08-2.83-3.56 2.47 3.26-.28-.36-3.43-4.53-6.82-9.1-10.09-13.74q-9.47-13.44-17.91-27.55t-15.84-28.91q-3.26-6.52-6.29-13.14-1.67-3.62-3.25-7.26c-.53-1.21-1.12-2.42-1.58-3.66 1.87 5-.27-.7-.67-1.66a434.85 434.85 0 0 1 -20.42-63.79q-3.84-16.21-6.44-32.7c-.39-2.49-.75-5-1.11-7.46-.68-4.72.51 4.26 0-.48-.17-1.36-.34-2.73-.5-4.1q-1-8.92-1.73-17.9a442.45 442.45 0 0 1 .22-69.93q.67-8.26 1.67-16.5c.16-1.35.25-2.76.51-4.1-1 5.12-.07.55.08-.47.38-2.71.8-5.42 1.24-8.12q2.71-16.78 6.74-33.31a450 450 0 0 1 20.81-63.62c1.74-4.27-1.67 3.8.17-.42.54-1.22 1.06-2.44 1.59-3.65q1.61-3.64 3.27-7.26 3.33-7.2 6.93-14.29 7.46-14.7 16-28.81t18.07-27.43c3-4.26 6.07-8.58 9.37-12.64-3.17 3.9-.29.39.29-.35.81-1 1.63-2 2.45-3.07q2.88-3.59 5.82-7.09a439.63 439.63 0 0 1 44.64-46q5.87-5.22 11.92-10.24 3-2.51 6.1-5c1-.82 2.06-1.63 3.08-2.44 1.6-1.25 1.38-1.08-.68.51l2.08-1.59q13.07-9.93 26.84-18.86a436.57 436.57 0 0 1 56.66-31c2.42-1.1 4.84-2.17 7.28-3.23.88-.38 5-2.35.41-.19 1.2-.56 2.46-1 3.69-1.52q8-3.27 16.17-6.22 15.75-5.7 31.92-10.18 15.57-4.28 31.57-7.46 8-1.58 16.12-2.87c2.71-.43 5.43-.82 8.14-1.21 4.71-.69-4.26.5.47-.06l5.47-.66a443.24 443.24 0 0 1 69.8-2.39q16.63.75 33.19 2.73c1.35.16 2.76.25 4.1.51-5.13-1-.55-.07.46.08 2.72.39 5.42.8 8.13 1.24q8.74 1.41 17.44 3.19a433.92 433.92 0 0 1 64.61 18.51q6.87 2.55 13.65 5.34c.89.37 5.18 1.94.43.17 1.23.46 2.44 1 3.65 1.57q4.26 1.86 8.47 3.81 15 6.93 29.44 15t28.08 17.04q6.57 4.34 13 8.92 3.21 2.29 6.37 4.63l3.15 2.36c.83.63 5.74 4 1.41 1.06 8.55 5.85 16.41 13.27 24.09 20.19q12.15 11 23.47 22.79t21.73 24.47c1.66 2 3.31 4.06 4.94 6.12.8 1 1.69 2 2.43 3.09-2.82-4.12-.32-.41.27.36q5.16 6.79 10 13.78a436.22 436.22 0 0 1 33 55.38q3.56 7.11 6.84 14.34c1.1 2.42 2.18 4.84 3.23 7.28.39.89 2.36 5 .2.42.75 1.59 1.36 3.28 2 4.91q6.13 15.18 11.1 30.77a434.84 434.84 0 0 1 15.37 65.17c.42 2.7.89 5.42 1.19 8.14-.58-5.24-.08-.5 0 .48.17 1.37.33 2.74.49 4.11q.93 8.25 1.57 16.53 1.26 16.76 1.27 33.58c0 9.8 8.6 19.18 18.72 18.73s18.75-8.23 18.73-18.73a453.54 453.54 0 0 0 -83.22-262.66 468.38 468.38 0 0 0 -96.82-100.22 455.48 455.48 0 0 0 -626.48 71.47 467.26 467.26 0 0 0 -72 120.25c-17.93 43.6-28.4 90-32 136.93a457.51 457.51 0 0 0 11.68 143.08 456.75 456.75 0 0 0 253.84 306.15 464.92 464.92 0 0 0 137.6 38 457.45 457.45 0 0 0 143.76-6.39 452.23 452.23 0 0 0 129.87-48.29 457.61 457.61 0 0 0 185.72-194.2 450.75 450.75 0 0 0 42.44-132.6 478.76 478.76 0 0 0 5.69-71.44c0-9.8-8.62-19.18-18.73-18.73s-18.71 8.19-18.72 18.69z"/><path d="m402.94 329.46a298.64 298.64 0 0 0 2.92 92.54c.49 2.63 1.08 5.36 2.79 7.42 2.61 3.15 7.12 3.88 11.2 3.86 17.34-.11 28.64-7.1 45.49-3 9.92 2.38 24.46 6.64 34.66 6.84 7.74.16 14.93-3.67 22.41-5.67 18.28-4.87 37.4 1.34 56 4.74 3.41.63 7.07 1.13 10.22-.3 5.39-2.43 7-9.19 7.81-15a425.72 425.72 0 0 0 3.88-71.36c-.12-4.22 0-9.2 3.51-11.6 3.63-2.51 9-.41 11.43 3.24s2.85 8.28 3.15 12.67q1.94 27.93 3.85 55.84c.86 12.62 1.8 25.51 6.78 37.13 3.33 7.78 8.42 14.82 10.75 23s1 18.3-6.16 22.85a33.23 33.23 0 0 1 -30.12 50c-6.36 20.3-30.12 33.33-50.65 27.77-17.39 20.3-49.44 26.2-72.91 13.41-1.66-.9-3.36-1.91-5.25-2a12.62 12.62 0 0 0 -4.24.93c-20.64 6.71-45.53-6.18-52-26.91a26.68 26.68 0 0 1 -36.39-27.43 25.27 25.27 0 0 1 -15.07-41.43c-4-9.11-.62-19.59 2.25-29.12a263.4 263.4 0 0 0 8.6-112.63"/></g><path d="m469.28 365.76a201.66 201.66 0 0 0 -32.88.11c-5.3.46-11 1.31-14.84 5s-4.9 9.16-5.5 14.35c-.77 6.74-.91 13.89 2.17 19.93 3.95 7.75 12.42 12.15 20.81 14.46 6.51 1.8 13.42 2.63 20 1.21s12.86-5.33 16.08-11.27a31.72 31.72 0 0 0 2.68-7.53 89.45 89.45 0 0 0 2.6-23.67 17 17 0 0 0 -1.33-7.17c-1.08-2.2-3.26-4-5.71-4" fill="#4747e2" opacity=".36"/><g fill="#1a1c3f"><path d="m470.21 362.38a217 217 0 0 0 -27-2.43c-7.23-.17-15.54-.53-22.13 3s-10 10.5-11.21 17.6c-1.31 7.59-2 15.9.42 23.35 4.9 15.3 21.21 22.5 36 24.34 14.37 1.79 33.24-4.65 36.58-20.66 1.9-9.14 1.36-19 2.18-28.3.35-3.9.49-8-1.48-11.54-2.44-4.4-5.49-4.84-10.16-4.85-4.85 0-5.93 7.27-1.15 8.51-.07 0 1.88 2.24 2.08 2.59a13.45 13.45 0 0 1 1.5 5.2 41.8 41.8 0 0 1 -.62 12.62c-1 5.8-3.9 13.42-8.25 17.58-9.21 8.82-26.77 5.31-36.44-1-5.23-3.43-7.7-8.4-8-14.61-.23-5.24-.26-14.08 3.85-18.06s12.27-4.25 17.75-4.92a207.15 207.15 0 0 1 25.15-1.49c3.81 0 5-6.29.93-6.89z"/><path d="m375.48 380.76a160.1 160.1 0 0 0 21.22 6.11c7 1.58 16.16 4.13 21.7-1.8a7.44 7.44 0 0 0 0-10.32c-5.48-5.58-13.66-3.23-20.64-2.8a180.45 180.45 0 0 1 -21.06-.19c-5.48-.31-5.76 7.29-1.22 9z"/><path d="m498.41 376.17c-12.41-3.27-24.28 10-23.78 22.08a5.06 5.06 0 0 0 8.52 3.53c3.13-2.81 4.67-6.95 7.12-10.28a21.14 21.14 0 0 1 8.14-6.65c3.89-1.52 4.63-7.46 0-8.68z"/></g><path d="m525.15 365.76a201.54 201.54 0 0 1 32.87.11c5.31.46 11 1.31 14.84 5s4.91 9.16 5.5 14.35c.78 6.74.91 13.89-2.17 19.93-4 7.75-12.42 12.15-20.81 14.46-6.51 1.8-13.42 2.63-20 1.21s-12.87-5.33-16.08-11.27a31.75 31.75 0 0 1 -2.69-7.53 89.44 89.44 0 0 1 -2.61-23.68 17.09 17.09 0 0 1 1.32-7.17c1.08-2.2 3.26-4 5.71-4" fill="#4747e2" opacity=".36"/><g fill="#1a1c3f"><path d="m525.15 369.27a207.39 207.39 0 0 1 25.15 1.49c5.44.67 13.51.83 17.74 4.92 4 3.86 4 12.13 3.87 17.2-.11 6.51-2.47 11.88-8 15.47-9.73 6.31-27.17 9.84-36.44 1-4.36-4.15-7.26-11.78-8.25-17.58a44.85 44.85 0 0 1 -.76-11.61 15 15 0 0 1 1.31-5.53 17.22 17.22 0 0 1 2.41-3.27c4.74-1.23 3.75-8.53-1.15-8.51-3.66 0-6.48-.07-8.93 3-2.32 2.93-3 6.56-2.94 10.24.2 8.34 1.24 16.66 1.79 25 .53 7.93 2.85 14.48 9.13 19.71a35.14 35.14 0 0 0 20.73 7.79c14.47.79 33-5.67 40.71-18.69 4.07-6.92 4.68-15.19 3.91-23-.71-7.26-2-14.88-7.26-20.36-6-6.25-14.93-6.65-23-6.65a209.28 209.28 0 0 0 -30.92 2.48c-4 .59-2.92 6.89.94 6.89z"/><path d="m617.72 371.76a185 185 0 0 1 -21.06.19c-7-.4-15.14-2.8-20.63 2.8a7.44 7.44 0 0 0 0 10.32c5.52 5.91 14.75 3.37 21.7 1.8a160 160 0 0 0 21.21-6.11c4.5-1.7 4.31-9.31-1.22-9z"/><path d="m496 384.85a21.11 21.11 0 0 1 8.13 6.65c2.45 3.33 4 7.47 7.12 10.28a5.06 5.06 0 0 0 8.52-3.53c.5-12.05-11.36-25.35-23.77-22.08-4.63 1.22-3.9 7.16 0 8.68z"/><path d="m438.85 343c.95-.84 2.88-.63 4.1-.77 2.33-.27 4.65-.6 7-.81a87.88 87.88 0 0 1 12.25-.24c7.77.39 7.84-12.29 0-12.13a110.11 110.11 0 0 0 -19.31 2.32c-4.62.93-9.37 2.81-10.59 7.81a4 4 0 0 0 6.56 3.82z"/><path d="m563.83 333.8c-3.54-4.39-10.78-5.58-16.09-6.21-5.85-.7-13.51-1.87-18.79 1.11-4.6 2.59-2.94 8.65 1.35 10.33 4.64 1.81 10.73-.11 15.68-.18s10.38 1.6 15.31 1.09a3.65 3.65 0 0 0 2.54-6.14z"/></g><path d="m465.76 466.1c3.27 10.31 19.62 10.9 28.52 11.36 12.4.63 25.92-1.17 37.17-6.62 4.65-2.25 1.39-10-3.53-8.37-9.42 3.13-18.39 5.95-28.41 6.33a78.42 78.42 0 0 1 -14.2-.69c-3.7-.53-11.42-.84-13.13-4.72-1.6-3.65-7.61-1.05-6.42 2.71z" fill="#ef6348"/><g fill="#1a1c3f"><path d="m371.94 367.3a36.58 36.58 0 0 0 -3.88-23.3c-1.56-2.89-3.53-5.58-4.6-8.68s-1.1-6.83 1-9.35c1.24-1.5 3.21-2.6 3.57-4.51.31-1.66-.74-3.22-1.48-4.73-3.77-7.6-.17-17.19 6.13-22.88s14.66-8.38 22.75-10.91c4.47-1.4 9.28-2.8 13.75-1.42 5.28 1.64 8.8 7 9.47 12.49s-1.07 11-3.58 15.93c-4.39 8.62-11.05 15.82-16.89 23.52s-11.05 16.42-11.76 26.07"/><path d="m375.72 368.35a37.52 37.52 0 0 0 -2.15-25.58c-1.37-3.09-4.37-6.73-4.63-10.21-.24-3.32 3.87-5.17 5-8.28 1.75-4.66-.94-7.62-2-11.9a12.16 12.16 0 0 1 1.3-8.36c3.55-7.1 11.59-10.35 18.69-12.71 6.13-2 16.57-7 19.29 1.89 2.3 7.56-3.67 16-7.82 21.75-5 6.94-10.89 13.21-15.54 20.42s-10.07 17.22-7.77 25.91c1.37 5.19 9.43 6.72 12 1.56 1.79-3.6 2.17-7.51 3.66-11.22a56.78 56.78 0 0 1 6.27-11c4.57-6.53 9.95-12.47 14.48-19 8.35-12.12 14.89-30.46 2.33-42.32-6.31-6-14.76-6.06-22.69-3.8-7.41 2.11-15.23 4.65-21.82 8.74a33.79 33.79 0 0 0 -13.95 15.91 26.2 26.2 0 0 0 -2 9.93 23.69 23.69 0 0 0 .65 5.17 35.48 35.48 0 0 0 2.17 4.63c0-.38-.13.05-.5.66-.61 1-1.54 1.77-2.14 2.79a14.2 14.2 0 0 0 -1.84 5.59 19.65 19.65 0 0 0 2.64 11.64c2.19 4.08 5.08 7.54 6.62 12a44 44 0 0 1 2.03 14.74c0 4.44 6.51 5.31 7.7 1.05z"/><path d="m604.88 351.4c-13.61-8.74-19.46-25.52-22.92-41.33a68.21 68.21 0 0 0 -2.42-9.24c-1.09-2.89-2.61-5.6-3.87-8.43-3.38-7.57-4.14-17.94 2.59-22.78a18.89 18.89 0 0 1 7.67-2.84c19.93-3.77 42.52 3.56 53.48 20.63 2.11 3.29 3.82 7.2 3 11-1 4.95-5.73 8.11-10.05 10.71a4.11 4.11 0 0 0 -1.75 1.57c-.8 1.67.81 3.4 2 4.85 4.88 6.21 2.08 15.6-2.93 21.7s-11.91 10.54-16.42 17"/><path d="m607.77 348.51c-11.39-8.89-16.44-23.47-19.44-37.13-.89-4.07-1.51-8.22-2.87-12.18-1.29-3.75-3.29-7.22-4.46-11-1.68-5.47-2.2-12.36 4.36-14.15 12.64-3.46 27.66-.27 38.28 7.17 3.94 2.75 12.59 10 11.72 15.59-.38 2.4-3.66 4.12-5.49 5.29-3.15 2-5.83 4.05-6.52 7.93a10.38 10.38 0 0 0 1.18 6.92c.9 1.66 2.51 2.92 3 4.78.9 3.27-1 7.22-2.87 9.82-5 7.08-12.75 11.89-18 18.95-2.44 3.31-.52 8.39 2.71 10.33 3.78 2.27 7.93.57 10.32-2.71 5.7-7.84 14.67-12.69 19.23-21.5a28.38 28.38 0 0 0 3.52-13.77 21.15 21.15 0 0 0 -1.32-6.77c-.84-2.2-2.91-4-3.65-6.05v3.91c-.12.79-3.25 2.44-.27.83a19.25 19.25 0 0 0 1.8-1.17 41.41 41.41 0 0 0 4.27-3.29 20 20 0 0 0 6-9.28c2.25-8.19-2.23-16-7.23-22.15-8.78-10.79-22.23-17.33-35.84-19.31-13.12-1.9-32.84-1.62-38.46 13-2.42 6.31-1.54 13.51.89 19.69 1.49 3.78 3.76 7.19 5.23 11 1.59 4.09 2.28 8.5 3.4 12.72 4.15 15.62 11 30.64 25.55 39 3.88 2.21 8.72-3.48 4.95-6.42z"/></g></svg>