<svg viewBox="0 0 1000 1000" xmlns="http://www.w3.org/2000/svg"><circle cx="462.27" cy="464.88" fill="#ef6348" r="437.27"/><circle cx="501.31" cy="503.92" fill="#fff" r="437.27"/><circle cx="537.73" cy="535.12" fill="#1a1c3f" r="437.27"/><path d="m162.37 780.2c80.19 98.25 202.23 161 338.94 161 136.93 0 259.16-63 339.34-161.49-1.54-25.25-5.4-50.49-10.18-75.05-20.31-104.51-114.33-106-189.11-101.82q-141.75 7.89-283.58 6.77c-60.72-.48-148.33-.54-177.18 78.36-10.51 28.71-16.05 60.52-18.23 92.23z" fill="#fff"/><path d="m187 797.19c80.19 98.25 202.23 161 338.94 161 136.93 0 259.16-62.95 339.34-161.48-1.53-25.26-5.4-50.5-10.18-75.06-20.3-104.51-114.33-106-189.11-101.81q-141.75 7.88-283.58 6.76c-60.73-.5-148.34-.6-177.19 78.4-10.51 28.67-16.05 60.47-18.22 92.19z" fill="#f7cebf"/><path d="m501.31 941.19a435.44 435.44 0 0 0 275.59-97.78c-4.44-5.87-9.57-11.44-14.11-17.12-15.79-19.69-25.71-43.29-35.22-66.67-11.57-28.46-22.88-57.27-28.57-87.46-4.32-23-5.21-47.09-.47-69.92-19.3-1.1-38.83-.43-57.19.59q-141.75 7.89-283.58 6.77c-12.45-.1-26-.18-40 .43 0 .47 0 .93-.05 1.39-3 82.2-39.51 159.12-78 231.83a45.55 45.55 0 0 0 -3.67 8.35 435.29 435.29 0 0 0 265.27 89.59z" fill="#fff"/><path d="m526.57 941.19a435.44 435.44 0 0 0 275.59-97.78c-4.44-5.87-9.57-11.44-14.11-17.12-15.77-19.69-25.71-43.31-35.22-66.67-11.58-28.46-22.88-57.27-28.55-87.46-4.32-23-5.21-47.09-.47-69.92-19.3-1.1-38.83-.43-57.19.59q-141.75 7.89-283.62 6.77c-12.44-.1-26-.18-40 .43v1.39c-3 82.2-39.52 159.12-78 231.83a45.55 45.55 0 0 0 -3.67 8.35 435.29 435.29 0 0 0 265.24 89.59z" fill="#eab642"/><path d="m639.89 906.88c-6.12-4.68-12.51-9.72-15.37-16.87-1.69-4.21-2-8.83-2.25-13.36q-1.15-21.3-.81-42.66l37.44-15c2.69-1.08 5.51-2.18 8.39-1.91a18.29 18.29 0 0 1 6.76 2.54l28.43 15.18 1.81 28.61c.31 4.93.61 10-.63 14.74s-4.3 9.37-8.91 11.15" fill="#fff"/><path d="m657.53 916.68c-6.12-4.68-12.53-9.68-15.38-16.87-1.68-4.21-2-8.83-2.24-13.36q-1.15-21.32-.81-42.66l37.44-15c2.69-1.08 5.51-2.18 8.39-1.91a18.36 18.36 0 0 1 6.76 2.54l28.43 15.18 1.81 28.6c.31 4.94.61 10-.63 14.75s-4.3 9.37-8.91 11.15" fill="#ef6348"/><g fill="#1a1c3f"><path d="m501.31 950.55c79.9-.15 159.13-21.55 227.85-62.42a460.22 460.22 0 0 0 54.36-38.13c2.86-2.32 3.77-8.34 1.46-11.34-9.94-12.94-20.64-24.69-28.71-39-7.69-13.64-13.78-28.09-19.67-42.57-12.62-31-25.07-62.61-30-95.91-2.75-18.65-2.76-38 1-56.5 1.24-6.16-2.66-11.51-9-11.85-24.38-1.31-48.7.19-73 1.45q-37.66 2-75.35 3.29-74.34 2.61-148.75 2.75c-27.85.06-55.77-.85-83.61.31a9.56 9.56 0 0 0 -9.36 9.36c-2.29 66.12-26.74 128.79-55.66 187.45q-6.21 12.6-12.69 25.06c-4.5 8.67-9.91 17.27-13 26.57-1.43 4.3 1.07 8.12 4.3 10.58a444 444 0 0 0 203.43 85.87 462.3 462.3 0 0 0 66.49 5c12.05 0 12.07-18.7 0-18.73a429.1 429.1 0 0 1 -209.85-54.91 446 446 0 0 1 -50.62-33.39l4.31 10.57c2.54-7.68 7.38-14.93 11.1-22.1q5.83-11.26 11.48-22.62c7.52-15.16 14.72-30.49 21.36-46.07 13.25-31 24.53-63 31.24-96.14a350.58 350.58 0 0 0 6.74-57.13l-9.37 9.37c24.55-1 49.14-.31 73.7-.3q37.68 0 75.36-.61 74.4-1.23 148.74-4.93c27.64-1.38 55.28-3.45 83-2l-9-11.85c-7.11 35.45-2.24 71.57 8.18 105.87 5.11 16.81 11.45 33.22 18 49.51 6.29 15.6 12.54 31.3 20.23 46.28a185.23 185.23 0 0 0 14.51 24c5.72 7.91 12.42 15 18.36 22.72l1.46-11.35a425.25 425.25 0 0 1 -269 95c-12.07.14-12.09 18.86-.02 18.84z"/><path d="m155.75 786.82a446.06 446.06 0 0 0 622.75 67.24 440.68 440.68 0 0 0 61.07-58.53q3.18-3.71 6.27-7.46c1.49-1.81 3.2-3.56 3.84-5.88.71-2.61.13-5.67-.06-8.32-.68-9.07-1.65-18.11-2.83-27.13-2.26-17.32-4.8-34.83-8.85-51.84-5.53-23.2-16.19-45.48-33.14-62.5-14.8-14.87-33.66-24.92-53.62-31-43.8-13.32-90.62-8.82-135.59-6.58q-111 5.52-222.12 5.54c-47.69 0-98.3-4.07-144.29 11.37-21.42 7.19-41.6 18.92-56.28 36.37-19.07 22.68-27.57 51.94-33.21 80.54a418 418 0 0 0 -6.69 51.56c-.36 5 4.56 9.37 9.36 9.37 5.37 0 9-4.3 9.37-9.37a370 370 0 0 1 7.72-54.73c3.49-15.59 7.68-31.7 15-46 10.73-21.08 28-36.37 49.52-45.8 20.32-8.92 43.42-12.38 65.47-13.82 26.64-1.74 53.42-.77 80.1-.75q117.54.09 235-6c24.36-1.26 48.73-2.88 73.13-1.56 20.79 1.13 42.25 4.35 61.55 12.56 19 8.07 35.33 21.33 46.21 39.28a124.08 124.08 0 0 1 14 34.39c4.35 17.26 7 35.19 9.2 52.84q1.8 14.5 2.72 29.09l2.75-6.62c-62.65 76.63-150.1 130.33-247.1 150.19-99 20.25-204.09 4.28-292.44-44.64a435 435 0 0 1 -125.56-105.05c-3.2-3.91-9.91-3.33-13.24 0-3.88 3.87-3.22 9.32-.01 13.24z"/><path d="m919.85 503.92q0 17.51-1.38 35-.66 8.28-1.62 16.52c-.16 1.37-.34 2.74-.5 4.1-.57 4.74.62-4.24-.06.48-.46 3.16-.92 6.33-1.43 9.48a435 435 0 0 1 -15.55 64.38q-5.14 15.87-11.49 31.32c-.37.89-1.94 5.19-.17.43-.46 1.24-1 2.45-1.58 3.66q-1.59 3.64-3.25 7.26-3.59 7.83-7.48 15.5a437.19 437.19 0 0 1 -33.34 55.13c-3 4.28-6.17 8.49-9.34 12.67-2.74 3.62 2.55-3.2-.28.36-.82 1-1.62 2-2.44 3.08q-2.87 3.59-5.8 7.11-10.44 12.6-21.83 24.34t-23.61 22.65q-5.88 5.22-11.93 10.23-2.52 2.1-5.07 4.14c-1 .83-2.05 1.64-3.08 2.45l-2.06 1.62c2.06-1.59 2.29-1.76.68-.53a451.57 451.57 0 0 1 -55 35.87q-14.49 8-29.55 14.82c-2.41 1.1-4.84 2.17-7.27 3.23-.89.38-5 2.35-.42.19-1.2.56-2.46 1-3.69 1.52q-7.39 3-14.91 5.77a434.1 434.1 0 0 1 -64.78 18.11q-8 1.59-16.12 2.88c-2.71.43-5.42.82-8.14 1.21-4.71.68 4.27-.51-.47.06-1.82.22-3.64.45-5.47.66-11 1.26-22.14 2.1-33.24 2.52a443.88 443.88 0 0 1 -69.73-2.84c-1.35-.17-2.76-.25-4.09-.52 5.12 1 .55.08-.47-.07q-4.06-.59-8.13-1.24-8.75-1.41-17.43-3.19-15.9-3.25-31.53-7.68-16.11-4.6-31.8-10.36-7.5-2.78-14.89-5.81c-.9-.37-5.19-1.94-.43-.17-1.24-.46-2.45-1-3.66-1.57q-4.26-1.86-8.47-3.81a436.12 436.12 0 0 1 -56.45-31.36 327.19 327.19 0 0 1 -26.72-19c3.9 3.16.39.29-.35-.3-1-.81-2.05-1.62-3.08-2.45q-3.06-2.46-6.08-5-6.54-5.44-12.86-11.15a439.59 439.59 0 0 1 -44.37-46.25q-2.5-3-5-6.1c-.82-1-1.62-2.06-2.44-3.08-2.83-3.56 2.47 3.26-.28-.36-3.43-4.53-6.82-9.1-10.09-13.74q-9.47-13.44-17.91-27.55t-15.84-28.91q-3.26-6.52-6.29-13.14-1.67-3.62-3.25-7.26c-.53-1.21-1.12-2.42-1.58-3.66 1.87 5-.27-.7-.67-1.66a434.85 434.85 0 0 1 -20.42-63.79q-3.84-16.21-6.44-32.7c-.39-2.49-.75-5-1.11-7.46-.68-4.72.51 4.26 0-.48-.17-1.36-.34-2.73-.5-4.1q-1-8.92-1.73-17.9a442.45 442.45 0 0 1 .22-69.93q.67-8.26 1.67-16.5c.16-1.35.25-2.76.51-4.1-1 5.12-.07.55.08-.47.38-2.71.8-5.42 1.24-8.12q2.71-16.78 6.74-33.31a450 450 0 0 1 20.81-63.62c1.74-4.27-1.67 3.8.17-.42.54-1.22 1.06-2.44 1.59-3.65q1.61-3.64 3.27-7.26 3.33-7.2 6.93-14.29 7.46-14.7 16-28.81t18.07-27.43c3-4.26 6.07-8.58 9.37-12.64-3.17 3.9-.29.39.29-.35.81-1 1.63-2 2.45-3.07q2.88-3.59 5.82-7.09a439.63 439.63 0 0 1 44.64-46q5.87-5.22 11.92-10.24 3-2.51 6.1-5c1-.82 2.06-1.63 3.08-2.44 1.6-1.25 1.38-1.08-.68.51l2.08-1.59q13.07-9.93 26.84-18.86a436.57 436.57 0 0 1 56.66-31c2.42-1.1 4.84-2.17 7.28-3.23.88-.38 5-2.35.41-.19 1.2-.56 2.46-1 3.69-1.52q8-3.27 16.17-6.22 15.75-5.7 31.92-10.18 15.57-4.28 31.57-7.46 8-1.58 16.12-2.87c2.71-.43 5.43-.82 8.14-1.21 4.71-.69-4.26.5.47-.06l5.47-.66a443.24 443.24 0 0 1 69.8-2.39q16.63.75 33.19 2.73c1.35.16 2.76.25 4.1.51-5.13-1-.55-.07.46.08 2.72.39 5.42.8 8.13 1.24q8.74 1.41 17.44 3.19a433.92 433.92 0 0 1 64.61 18.51q6.87 2.55 13.65 5.34c.89.37 5.18 1.94.43.17 1.23.46 2.44 1 3.65 1.57q4.26 1.86 8.47 3.81 15 6.93 29.44 15t28.08 17.04q6.57 4.34 13 8.92 3.21 2.29 6.37 4.63l3.15 2.36c.83.63 5.74 4 1.41 1.06 8.55 5.85 16.41 13.27 24.09 20.19q12.15 11 23.47 22.79t21.73 24.47c1.66 2 3.31 4.06 4.94 6.12.8 1 1.69 2 2.43 3.09-2.82-4.12-.32-.41.27.36q5.16 6.79 10 13.78a436.22 436.22 0 0 1 33 55.38q3.56 7.11 6.84 14.34c1.1 2.42 2.18 4.84 3.23 7.28.39.89 2.36 5 .2.42.75 1.59 1.36 3.28 2 4.91q6.13 15.18 11.1 30.77a434.84 434.84 0 0 1 15.37 65.17c.42 2.7.89 5.42 1.19 8.14-.58-5.24-.08-.5 0 .48.17 1.37.33 2.74.49 4.11q.93 8.25 1.57 16.53 1.26 16.76 1.27 33.58c0 9.8 8.6 19.18 18.72 18.73s18.75-8.23 18.73-18.73a453.54 453.54 0 0 0 -83.22-262.66 468.38 468.38 0 0 0 -96.82-100.22 455.48 455.48 0 0 0 -626.48 71.47 467.26 467.26 0 0 0 -72 120.25c-17.93 43.6-28.4 90-32 136.93a457.51 457.51 0 0 0 11.68 143.08 456.75 456.75 0 0 0 253.84 306.15 464.92 464.92 0 0 0 137.6 38 457.45 457.45 0 0 0 143.76-6.39 452.23 452.23 0 0 0 129.87-48.29 457.61 457.61 0 0 0 185.72-194.2 450.75 450.75 0 0 0 42.44-132.6 478.76 478.76 0 0 0 5.69-71.44c0-9.8-8.62-19.18-18.73-18.73s-18.71 8.19-18.72 18.69z"/></g><path d="m385.58 624.77c-6.82-90.79-8.92-235.54-6.26-326.55.26-9 .72-18.56 5.59-26.16 3.62-5.65 9.29-9.61 15-13.13 34.67-21.4 75.25-31.55 115.76-35.87 25.57-2.72 52.72-2.94 75.43 9.13 8.1 4.31 15.64 10.38 19.59 18.67 3 6.22 3.7 13.24 4.36 20.1 9 93.19 11.49 240.61 7.46 334.14-.32 7.49-.78 15.31-4.54 21.8-5.8 10-17.86 14.36-29.07 17.31a328.43 328.43 0 0 1 -204.7-12.89" fill="#fff"/><path d="m409.59 631.09c-6.83-90.79-8.92-235.55-6.26-326.56.26-9 .72-18.55 5.59-26.16 3.61-5.64 9.29-9.61 15-13.12 34.66-21.4 75.25-31.55 115.75-35.87 25.58-2.72 52.73-2.95 75.44 9.13 8.1 4.3 15.64 10.38 19.58 18.66 3 6.23 3.71 13.25 4.37 20.11 9 93.19 11.49 240.61 7.46 334.14-.32 7.49-.78 15.31-4.54 21.8-5.8 10-17.86 14.35-29.07 17.3a328.36 328.36 0 0 1 -204.69-12.89" fill="#f7cebf"/><path d="m438 268.18c-11.94 15.3-29.22 26-47.83 31.54-6.71 2-14.6 3.13-20.17-1.1s-4.47-15.56 2.52-16c-10 1.05-19.68-8.28-19.05-18.27s11.44-18 21.19-15.74c-4.44-9.17 1.09-20.06 7.82-27.71 7.18-8.16 16.13-15.08 26.52-18.26s22.35-2.26 31.26 4a82.9 82.9 0 0 1 60.41-47.75c5.18-.92 11-1.18 15.16 2.07 4.71 3.69 5.18 11.63.94 15.85a113.9 113.9 0 0 1 32.23-16.66c10.93-3.6 24.41-5 32.62 3.09 8.84 8.68 4.91 26.27-6.78 30.37a86.7 86.7 0 0 1 25-7.51c9-1.27 19.49-.55 25.3 6.47 6.64 8 2.31 22.31-7.67 25.3a42.72 42.72 0 0 1 27.19 24.4c1.81 4.38 2.82 9.51.75 13.78s-8.25 6.6-11.78 3.44c7.43.41 10.73 10.87 6.88 17.24s-11.71 9-19.08 10.1c-25.71 3.76-51.62-5.86-74.14-18.85 6.39 2.21 6.63 12.22 1.6 16.75s-12.61 4.67-19.26 3.46c-18.3-3.32-34.09-14.75-47.8-27.32 4.06 1.81 4.88 7.74 2.48 11.48s-6.93 5.57-11.32 6.28c-13.71 2.22-28.45-5.2-34.84-17.53" fill="#4747e2"/><g fill="#34c6a0"><path d="m616.51 287.38q-.69-8.44-1.47-16.42c-.66-6.86-1.4-13.88-4.36-20.1-3.95-8.29-11.49-14.36-19.59-18.67-22.71-12.07-49.86-11.85-75.43-9.13-40.51 4.32-81.09 14.47-115.76 35.87-5.7 3.52-11.37 7.48-15 13.13-4.87 7.6-5.33 17.13-5.59 26.16q0 1.62-.09 3.27a37 37 0 0 0 11-1.77c18.61-5.51 35.89-16.24 47.83-31.54l.09-7.08c6.39 12.33 21.13 19.75 34.84 17.53 4.39-.71 8.92-2.54 11.32-6.28a8.91 8.91 0 0 0 .18-9.08c13.09 11.6 28 21.81 45.14 24.92 6.65 1.21 14.23 1.06 19.26-3.46 4.36-3.93 4.76-12 .61-15.49 20.51 11.53 43.76 20.05 67.02 18.14z"/><path d="m413.15 295.31c2.13 13.79-3 27.57-8 40.59-5.6 14.52-11.37 29.34-21.46 41.17-2.44-3.38-2.75-7.81-2.95-12q-1.17-25-1.06-50a12.19 12.19 0 0 1 .74-5c2-4.44 8.36-5.08 11.2-9"/><path d="m578 281.63a64.28 64.28 0 0 0 2.48 41c4.57 11.18 12.2 20.81 19.73 30.26l14.79 18.58c2-2.27 2.09-5.59 2.07-8.62q-.26-39-.5-78"/></g><g fill="#1a1c3f"><path d="m389.91 624.77c0-35.35-1.86-70.73-2.13-106.1-.29-39.12-1-78.23-.83-117.36.15-35.41-.25-70.9 1.26-106.3.38-9.12 1.74-17.43 9-23.61s17-10.85 25.68-15.06c19.5-9.42 40.51-15.61 61.71-19.81 20.58-4.08 41.94-6.91 63-6.11 17.71.68 40.71 4.78 52.41 19.65 5.86 7.45 6 17.61 6.85 26.63q1.14 12.42 2 24.85 2 26.57 3.21 53.17c3.71 76.18 4.25 152.44 2.54 228.67-.19 8.31-.33 16.63-.75 24.93-.44 8.7-2.24 16.52-10.06 21.39-8 5-17.57 6.93-26.62 9a303.14 303.14 0 0 1 -32.07 5.68 324.15 324.15 0 0 1 -128.45-10.39c-10.28-3-20.39-6.5-30.32-10.46-4-1.61-8.83 1.76-9.89 5.61-1.26 4.58 1.57 8.27 5.61 9.89a336.16 336.16 0 0 0 203.8 14.28c19.53-4.78 39.7-12.59 43.75-34.74 1.71-9.32 1.67-19 2.06-28.47q.57-13.53.84-27.08.6-28.77.57-57.54 0-62.07-2.35-124.12c-1.44-37.41-3.31-74.9-7.11-112.15-1.19-11.7-3.54-22.38-11.3-31.57-6.93-8.22-16.76-13.61-26.63-17.52-20.46-8.1-43.28-8.33-64.9-6.37-44.48 4-91.77 14.57-129.24 40.08-9 6.11-15.95 13.82-18.8 24.52-2.53 9.49-2.23 19.66-2.47 29.41q-.66 27.09-.79 54.2c-.47 79.83 2.22 159.69 9 239.24.71 8.29 1.7 16.46 2.93 24.69.73 4.91 8.52 3.61 8.51-1.16z"/><path d="m455 381.11c-2.68-.21-5.32-.65-7.42 1.5-1.7 1.74-2.24 5.12-2.2 7.45a8.47 8.47 0 0 0 3.9 7.25 7.45 7.45 0 0 0 7.81.09c2.26-1.47 3.41-4.64 1.85-7.06-1.46-2.26-4.64-3.42-7.06-1.85a3.66 3.66 0 0 1 2.36-.18c.66.35.75.38.25.1a1.49 1.49 0 0 1 .78.8c-.24-.43-.24-.43 0 0 0 .54 0 .51 0-.1 0-.33 0-.65 0-1s.05-.65.09-1a2.88 2.88 0 0 1 -.19.87l-1.67 1.68.38-.18-2.35.64c1.15-.13 2.31-.15 3.46-.21a4.42 4.42 0 1 0 0-8.84z"/><path d="m552.2 381.11c-2.68-.21-5.32-.65-7.42 1.5-1.7 1.74-2.24 5.12-2.2 7.45a8.47 8.47 0 0 0 3.9 7.25 7.45 7.45 0 0 0 7.81.09c2.26-1.47 3.41-4.64 1.85-7.06-1.46-2.26-4.64-3.42-7.06-1.85a3.66 3.66 0 0 1 2.36-.18c.66.35.75.38.25.1a1.49 1.49 0 0 1 .78.8c-.24-.43-.24-.43 0 0 0 .54 0 .51 0-.1 0-.33 0-.65 0-1s0-.65.09-1a2.88 2.88 0 0 1 -.19.87l-1.67 1.68.38-.18-2.35.64c1.15-.13 2.31-.15 3.46-.21a4.42 4.42 0 0 0 0-8.84z"/></g><path d="m376.46 381.57a12.23 12.23 0 0 0 -7.44-4.13 11.61 11.61 0 0 0 -9.21 3.63 21.58 21.58 0 0 0 -4.94 8.85 39.37 39.37 0 0 0 5.59 34.5 20.21 20.21 0 0 0 7.13 6.48 10.33 10.33 0 0 0 9.36.15" fill="#f7cebf"/><path d="m379.49 379.8c-4.8-8.48-14.65-10.83-22.78-5.15s-11.09 17.56-11.2 26.9a50.59 50.59 0 0 0 8.63 28.45c6.46 9.4 21 17 28.9 4.62 2.33-3.64.18-9.48-4.21-10.35-5.33-1.06-9.28-1.64-12.77-6.16a27.35 27.35 0 0 1 -5.22-14.19c-.73-7.82 2.17-25.83 13.85-19.31a3.54 3.54 0 0 0 4.8-4.8z" fill="#1a1c3f"/><path d="m624.87 381.57a12.17 12.17 0 0 1 7.44-4.13 11.57 11.57 0 0 1 9.2 3.63 21.6 21.6 0 0 1 5 8.85 39.4 39.4 0 0 1 -5.6 34.5 20.21 20.21 0 0 1 -7.13 6.48 10.33 10.33 0 0 1 -9.36.15" fill="#f7cebf"/><g fill="#1a1c3f"><path d="m626.64 384.6c11.68-6.53 14.54 11.5 13.85 19.31a27.5 27.5 0 0 1 -4.91 13.78c-3.58 4.82-7.47 5.45-13.08 6.57-4.39.87-6.54 6.71-4.22 10.35 7.66 12 21.88 5.21 28.43-4a50.46 50.46 0 0 0 9.11-29.09c-.11-9.19-3-20.41-10.51-26.36-8.07-6.36-18.52-4.14-23.48 4.61a3.54 3.54 0 0 0 4.81 4.8z"/><path d="m494 382.79c-2.67 7.08-2.42 15.4-2.93 22.86s-1.09 15-1.25 22.48c-.19 9.51 14.57 9.5 14.76 0 .15-7.49-.13-15-.33-22.48s.34-15.71-2-22.86c-1.39-4.15-6.73-3.91-8.21 0z"/><path d="m241.65 709.72c-4 23.21-7 46.44-9.2 69.88-1.1 11.49-2 23-2.58 34.5q-.45 8.88-.8 17.75c-.23 6-1.62 13.31 1.9 18.53 3.26 4.82 9.46 4.64 12.75 0 3.44-4.87 2.35-11.84 2.37-17.54s.08-11.18.17-16.77q.28-17.73.67-35.48c.52-23.27 1.47-46.56 2.59-69.81.21-4.43-7.11-5.56-7.87-1.06z"/><path d="m744.49 689.92c3.56 23.92 6.27 47.94 9.54 71.9s5 48 8.84 71.73l2.33-8.85.57-.42c-8.46 1.31-7.11 13.67 0 15.82 3.83 1.15 6.84.43 10.45-1.12 2.68-1.16 4.7-5 4.5-7.85-1.76-24.27-6.8-48.67-11.32-72.55s-10.69-47.4-17-70.83c-1.41-5.21-8.64-2.9-7.89 2.17z"/></g><path d="m435.25 265.41a90.53 90.53 0 0 1 -37.16 24.5c-5.87 2.08-14 5.29-20.37 4.1-1.86-.34-3.42-.73-3.87-2.65a3.87 3.87 0 0 1 .25-2.18c-.32.72-1.43.78.39.51 8.13-1.17 6.24-14.85-1.94-14.36-5.92.36-12.58-4.38-11.8-11 .64-5.37 6.76-9.78 12-8.8 6.57 1.22 10.64-4.72 8.13-10.57-4.81-11.19 11.38-25.15 19.29-30.27 11.08-7.16 25-9.46 36.45-1.87 3 2 8.35.84 9.88-2.59a77 77 0 0 1 31.57-35.35 74.1 74.1 0 0 1 21.64-8.39c3.08-.67 7.94-2 10.84-.23a3.51 3.51 0 0 1 1 5.26c-5.16 5.89 1.75 16.84 9 11.61a111.63 111.63 0 0 1 23.89-13.49c7.21-2.9 15.39-5.72 23.29-4.8 5.55.65 10.59 3.62 11.14 9.56.4 4.33-1.65 10.22-6.07 11.87l5.83 13.83c10-4.39 25.56-9.6 36.33-5.15 6.12 2.53 7.34 12.55.28 14.8-8.07 2.56-7.84 13.49 0 16.16a35.6 35.6 0 0 1 17.59 13.16c2 3 4.1 6.49 4.62 10.12a17.61 17.61 0 0 0 .07 2.32c.6 1.86-.19-.47.12.1.15.27 2.88 1.63.59-.05l-4.61 17c-.27 0-1.76-.2-1.74-.67 0-.06.57 1.16.54.6s.46 2.3.45 1.73c0 1.85-1.16 3.09-3.47 4.43-6.82 4-16.14 3.88-23.75 3.5-19.12-.94-37.28-8.88-53.68-18.24l-9.37 16c2.59 1.12.43.31.52-.09.29-1.25-.37 1.36.07.5-.64 1.26-.32 1.54-1.62 2.29-4.93 2.85-13.4 0-18.2-1.59-13.36-4.36-24.85-13.34-35.2-22.59l-10.88 14.1c-.13-.07-.24-1-.6-.8a24.76 24.76 0 0 1 -2.4 1.47 20.25 20.25 0 0 1 -11.1.59 26.07 26.07 0 0 1 -17.82-13c-5.28-9.41-19.54-1-14.45 8.45 7.58 14.11 23.78 23.59 39.93 22.29 8.49-.68 17.49-3.84 21.69-11.85a17.11 17.11 0 0 0 -6.19-22.65c-8.65-5.1-18.48 7.06-10.88 14.11 16.09 14.91 35.29 28.61 57.78 30.68 10 .92 21.53-2.57 26.18-12.18 4.25-8.77 2.25-21.51-7.46-25.75-4.59-2-10-1.35-12.7 3.33a9.41 9.41 0 0 0 3.33 12.7c24.61 14.09 52.6 24.21 81.31 19.84 11.34-1.73 23.62-7.75 26.79-19.74 3.25-12.3-4.62-24.27-17.08-25.75-3.91-.47-7.84 3.17-8.81 6.71-1.14 4.14.87 7.94 4.19 10.32 6.67 4.76 16 2.66 21.46-3 6.34-6.56 5.95-16.6 2.81-24.52a50.68 50.68 0 0 0 -33.58-30.1v16.32c16.27-6.16 23.36-28.77 9.22-41.16-15.8-13.84-41.38-5.73-57.92 2.28-7.6 3.68-2.13 17.14 5.83 13.83a26.56 26.56 0 0 0 16.84-22 25 25 0 0 0 -12.8-25.37c-9.9-5.3-22.11-4.15-32.49-1a119.68 119.68 0 0 0 -35.28 17.88l8.91 11.54c7.77-8.92 6.3-23.35-4.86-28.87-10.31-5.1-24-.82-34 3.2-21.54 8.65-39.6 25.33-49.06 46.64l9.89-2.6c-16.59-10.9-38.22-7.43-53.64 3.85-14.76 10.79-29.95 28.88-21.82 48l8.13-10.57c-14-2.66-28.68 6.72-30.22 21.39s11.74 27.69 26.16 26.87l-1.94-14.36c-9.76 1.37-13.26 13-10.4 21.24 3.92 11.3 17.17 13.44 27.5 11.08 21.32-4.87 41.36-20.06 53.7-37.75 2.55-3.65-3.18-8-6.16-4.75z" fill="#4747e2"/><g fill="#1a1c3f"><path d="m641.63 905.15c-4.16-3.71-8.31-7.61-11.18-12.45-3.21-5.4-3.42-11.87-3.71-18-.66-13.56-.82-27.14-.58-40.72l-3.45 4.53c13.24-5.26 26.39-11.38 39.9-15.93 6.53-2.2 12.7 3 18.29 5.95l19.25 10.23-2.28-4q.9 13.83 1.79 27.65c.54 8.48 1.47 18.34-7.12 23.07-4.23 2.34-1.35 9.76 3.37 8 12.53-4.7 13.62-18.54 12.94-30.1-.44-7.63-1-15.26-1.41-22.89-.17-2.72.31-6.18-1.34-8.51s-6.35-3.9-8.81-5.22q-9.6-5.16-19.21-10.31c-5.37-2.88-10.13-5-16.3-3.46-6.88 1.72-13.6 5.2-20.19 7.83-7.14 2.84-14.26 5.73-21.38 8.61a4.93 4.93 0 0 0 -3.45 4.54c-.18 15.57-.28 31.41 1.25 46.92 1.36 13.77 9.71 20.89 20.65 28.09 2.3 1.52 5.05-2 3-3.85z"/><path d="m431.46 358.3c7.36-.58 14.33-5.29 21.76-5.47 4.34-.11 7.48 2.43 11.84-.12 4.12-2.41 5.25-6.31 4.41-10.85a9.3 9.3 0 0 0 -6.71-6.7c-7.63-1.36-14 .31-20.84 3.84-5.21 2.7-11.65 6.87-14.63 12-1.72 3 .42 7.56 4.17 7.27z"/><path d="m569.45 347.6c-6.16-12.41-27.74-20.71-39.85-13a9.29 9.29 0 0 0 -3.27 12.45 8.14 8.14 0 0 0 3.27 3.26c2.73 1.49 6.48 1.84 9.18 0 3.12-2.12 8.71-1.24 12.27-.86 4.94.52 9.6 2.4 14.44 3.27a3.56 3.56 0 0 0 4-5.16z"/><path d="m472.52 479.35a44.39 44.39 0 0 0 26.39 6.87c7.95-.42 19.66-1.73 25-8.33a5.63 5.63 0 1 0 -8.91-6.89c-1.62 2.2-6.36 2.76-8.82 3.4a46.59 46.59 0 0 1 -10.68 1.66 53.64 53.64 0 0 1 -20.06-3.77c-4.2-1.6-6.51 4.8-3 7z"/></g></svg>