<svg id="Layer_1" enable-background="new 0 0 512 512" height="512" viewBox="0 0 512 512" width="512" xmlns="http://www.w3.org/2000/svg"><path clip-rule="evenodd" d="m134.916 14.102c70.093 0 126.915 56.822 126.915 126.915s-56.822 126.915-126.915 126.915-126.915-56.822-126.915-126.915 56.822-126.915 126.915-126.915zm245.457 355.853c57.468 0 106.086 37.889 122.238 90.048 2.838 9.164 1.296 18.282-4.397 26.003-5.692 7.722-13.945 11.891-23.539 11.891h-188.604c-9.593 0-17.846-4.17-23.539-11.891-5.692-7.722-7.235-16.84-4.397-26.003 16.152-52.159 64.772-90.048 122.238-90.048zm.001-146.653c35.726 0 64.688 28.962 64.688 64.688s-28.962 64.688-64.688 64.688-64.687-28.962-64.687-64.688 28.962-64.688 64.687-64.688zm-11.027-77.348v19.532c0 1.004-.529 1.864-1.424 2.318-.896.454-1.902.371-2.711-.223l-58.16-42.67c-.666-.488-1.034-1.187-1.06-2.012s.296-1.546.929-2.076l58.161-48.678c.792-.663 1.831-.799 2.767-.362s1.499 1.321 1.499 2.354v18.145c90.677 0 120.418 66.664 94.073 114.072-14.574-56.745-62.157-60.4-94.074-60.4zm-206.911 252.861v-19.177c0-1.077.567-2 1.527-2.486.961-.486 2.04-.398 2.908.239l57.712 42.34c.714.523 1.108 1.273 1.137 2.158.028.885-.318 1.658-.997 2.226l-57.712 48.302c-.849.711-1.964.857-2.968.388s-1.607-1.417-1.607-2.525v-17.758c-90.74 0-120.501-66.71-94.139-114.151 14.584 56.787 62.2 60.444 94.139 60.444zm-27.519-362.711c-28.97 0-55.198 11.743-74.184 30.729s-30.729 45.214-30.729 74.184 11.743 55.198 30.729 74.184 45.214 30.729 74.184 30.729 55.198-11.743 74.184-30.729 30.729-45.214 30.729-74.184-11.744-55.198-30.73-74.184c-18.985-18.986-45.214-30.729-74.183-30.729zm62.871 42.041c-16.089-16.09-38.318-26.041-62.871-26.041s-46.782 9.952-62.872 26.041c-16.089 16.09-26.041 38.318-26.041 62.872 0 24.553 9.952 46.782 26.041 62.872 16.09 16.089 38.318 26.041 62.872 26.041 24.553 0 46.782-9.952 62.871-26.041 16.09-16.09 26.041-38.318 26.041-62.872s-9.952-46.782-26.041-62.872zm-26.846 30.291c-5.106-12.161-14.828-19.188-25.514-21.896-.789-.2-1.584-.375-2.383-.527v-6.322c0-4.486-3.637-8.122-8.123-8.122s-8.122 3.637-8.122 8.122v6.443l-.005.001c-6.168 1.242-11.96 3.844-16.625 7.638-7.165 5.825-11.708 14.283-11.196 24.829.514 10.596 5.801 17.703 13.163 22.509 6.419 4.19 14.303 6.358 21.573 7.552 5.843.959 12.081 2.476 16.82 5.337 3.794 2.29 6.644 5.638 7.252 10.654.081.668.125 1.153.132 1.464.095 3.99-1.814 7.031-4.68 9.206-3.586 2.721-8.62 4.325-13.655 4.936-1.37.166-2.566.26-3.581.284-5.961.143-11.843-1.317-16.438-4.377-3.773-2.513-6.656-6.188-7.86-11.017-1.069-4.346-5.458-7.002-9.804-5.933s-7.002 5.458-5.933 9.804c2.271 9.108 7.64 15.994 14.65 20.663 4.792 3.192 10.358 5.301 16.187 6.327v6.332c0 4.486 3.637 8.122 8.122 8.122 4.486 0 8.123-3.637 8.123-8.122v-6.178c7.081-1.077 14.297-3.66 19.962-7.958 6.801-5.16 11.326-12.551 11.09-22.468-.027-1.134-.092-2.134-.195-2.987-1.319-10.867-7.199-17.941-14.994-22.648-6.849-4.135-15.064-6.195-22.595-7.431-5.435-.893-11.16-2.403-15.354-5.141-3.252-2.123-5.584-5.196-5.802-9.691-.236-4.862 1.886-8.784 5.231-11.503 2.619-2.129 5.96-3.609 9.581-4.338 3.718-.749 7.711-.69 11.526.277 6.056 1.535 11.57 5.527 14.473 12.441 1.735 4.135 6.494 6.082 10.629 4.347 4.133-1.735 6.08-6.494 4.345-10.629z" fill-rule="evenodd"/></svg>